<svg height="496pt" viewBox="0 0 496 496" width="496pt" xmlns="http://www.w3.org/2000/svg"><path d="m216 120v14.671875c0 64.777344-5.351562 129.433594-16 193.328125h-160c-10.648438-63.886719-16-128.550781-16-193.328125v-14.671875" fill="#af4a47"/><path d="m24 134.671875c0 55.855469 4 111.625 11.929688 166.886719 7.8125 1.539062 15.839843 2.441406 24.070312 2.441406 72.902344 0 132-62.679688 132-140 0-15.382812-2.425781-30.152344-6.753906-44h-161.246094zm0 0" fill="#e4725f"/><path d="m472 120v14.671875c0 64.777344-5.351562 129.433594-16 193.328125h-160c-10.648438-63.886719-16-128.550781-16-193.328125v-14.671875" fill="#d1a339"/><path d="m280 134.671875c0 55.855469 4 111.625 11.929688 166.886719 7.8125 1.539062 15.839843 2.441406 24.070312 2.441406 72.902344 0 132-62.679688 132-140 0-15.382812-2.425781-30.152344-6.753906-44h-161.246094zm0 0" fill="#f0d365"/><path d="m342.671875 248c-7.617187-45.398438-47.105469-80-94.671875-80s-87.054688 34.601562-94.671875 80" fill="#b8cbd9"/><path d="m248 168c-39.976562 0-74.167969 24.480469-88.609375 59.230469 11.34375 3.042969 23.671875 4.769531 36.609375 4.769531 47.398438 0 87.007812-22.449219 97.3125-52.550781-13.511719-7.257813-28.90625-11.449219-45.3125-11.449219zm0 0" fill="#e8eff4"/><path d="m469.34375 88c-7.617188-45.398438-47.105469-80-94.671875-80s-87.054687 34.601562-94.671875 80" fill="#b8cbd9"/><path d="m374.671875 8c-39.976563 0-74.167969 24.480469-88.609375 59.230469 11.351562 3.042969 23.671875 4.769531 36.609375 4.769531 47.398437 0 87.007813-22.449219 97.3125-52.550781-13.511719-7.257813-28.90625-11.449219-45.3125-11.449219zm0 0" fill="#e8eff4"/><path d="m213.34375 88c-7.617188-45.398438-47.105469-80-94.671875-80s-87.054687 34.601562-94.671875 80" fill="#b8cbd9"/><path d="m118.671875 8c-39.976563 0-74.167969 24.480469-88.609375 59.230469 11.351562 3.042969 23.671875 4.769531 36.609375 4.769531 47.398437 0 87.007813-22.449219 97.3125-52.550781-13.511719-7.257813-28.90625-11.449219-45.3125-11.449219zm0 0" fill="#e8eff4"/><path d="m72 120v32h96v-32" fill="#b8cbd9"/><path d="m8 88h224v32h-224zm0 0" fill="#8892a0"/><path d="m328 120v32h96v-32" fill="#b8cbd9"/><path d="m264 88h224v32h-224zm0 0" fill="#8892a0"/><path d="m344 280v14.671875c0 64.777344-5.351562 129.433594-16 193.328125h-160c-10.648438-63.886719-16-128.550781-16-193.328125v-14.671875" fill="#568e53"/><path d="m152 294.671875c0 55.855469 4 111.625 11.929688 166.886719 7.8125 1.539062 15.839843 2.441406 24.070312 2.441406 72.902344 0 132-62.679688 132-140 0-15.382812-2.425781-30.152344-6.753906-44h-161.246094zm0 0" fill="#7ecb92"/><path d="m200 280v32h96v-32" fill="#b8cbd9"/><path d="m136 248h224v32h-224zm0 0" fill="#8892a0"/><path d="m334.785156 249.328125c-7.128906-42.496094-43.625-73.328125-86.785156-73.328125s-79.65625 30.832031-86.785156 73.328125l-15.78125-2.648437c8.429687-50.222657 51.566406-86.679688 102.566406-86.679688s94.136719 36.457031 102.558594 86.671875zm0 0"/><path d="m328 496h-160c-3.910156 0-7.246094-2.832031-7.886719-6.6875-10.699219-64.136719-16.113281-129.617188-16.113281-194.632812v-14.679688h16v14.679688c0 61.878906 4.976562 124.191406 14.800781 185.320312h146.398438c9.824219-61.128906 14.800781-123.441406 14.800781-185.320312v-14.679688h16v14.679688c0 65.015624-5.414062 130.496093-16.113281 194.632812-.640625 3.855469-3.976563 6.6875-7.886719 6.6875zm0 0"/><path d="m360 288h-224c-4.414062 0-8-3.574219-8-8v-32c0-4.414062 3.585938-8 8-8h224c4.414062 0 8 3.585938 8 8v32c0 4.425781-3.585938 8-8 8zm-216-16h208v-16h-208zm0 0"/><path d="m296 320h-96c-4.414062 0-8-3.574219-8-8v-32h16v24h80v-24h16v32c0 4.425781-3.585938 8-8 8zm0 0"/><path d="m274.34375 381.65625-26.34375-26.34375-18.34375 18.34375-11.3125-11.3125 24-24c3.128906-3.128906 8.183594-3.128906 11.3125 0l32 32zm0 0"/><path d="m232 416h-48c-3.230469 0-6.152344-1.945312-7.390625-4.9375-1.242187-2.992188-.554687-6.429688 1.734375-8.71875l32-32 11.3125 11.3125-18.34375 18.34375h28.6875zm0 0"/><path d="m312 416h-64v-16h44.6875l-10.34375-10.34375 11.3125-11.3125 24 24c2.289062 2.289062 2.976562 5.726562 1.734375 8.71875-1.238281 2.992188-4.160156 4.9375-7.390625 4.9375zm0 0"/><path d="m462.785156 89.328125c-7.128906-42.496094-43.625-73.328125-86.785156-73.328125s-79.65625 30.832031-86.785156 73.328125l-15.78125-2.648437c8.429687-50.222657 51.566406-86.679688 102.566406-86.679688s94.136719 36.457031 102.558594 86.671875zm0 0"/><path d="m272.726562 176.28125c-.480468-13.792969-.726562-27.792969-.726562-41.609375v-14.671875h16v14.671875c0 13.625.238281 27.433594.71875 41.039063zm0 0"/><path d="m456 336h-112v-16h105.199219c9.824219-61.128906 14.800781-123.441406 14.800781-185.328125v-14.671875h16v14.671875c0 65.015625-5.414062 130.503906-16.113281 194.640625-.640625 3.855469-3.976563 6.6875-7.886719 6.6875zm0 0"/><path d="m488 128h-224c-4.414062 0-8-3.585938-8-8v-32c0-4.414062 3.585938-8 8-8h224c4.414062 0 8 3.585938 8 8v32c0 4.414062-3.585938 8-8 8zm-216-16h208v-16h-208zm0 0"/><path d="m424 160h-96c-4.414062 0-8-3.585938-8-8v-32h16v24h80v-24h16v32c0 4.414062-3.585938 8-8 8zm0 0"/><path d="m402.34375 221.65625-26.34375-26.34375-18.34375 18.34375-11.3125-11.3125 24-24c3.128906-3.128906 8.183594-3.128906 11.3125 0l32 32zm0 0"/><path d="m440 256h-56v-16h36.6875l-10.34375-10.34375 11.3125-11.3125 24 24c2.289062 2.289062 2.976562 5.726562 1.734375 8.71875-1.238281 2.984375-4.160156 4.9375-7.390625 4.9375zm0 0"/><path d="m206.785156 89.328125c-7.128906-42.496094-43.625-73.328125-86.785156-73.328125s-79.65625 30.832031-86.785156 73.328125l-15.773438-2.65625c8.421875-50.214844 51.558594-86.671875 102.558594-86.671875s94.136719 36.457031 102.558594 86.671875zm0 0"/><path d="m152 336h-112c-3.910156 0-7.246094-2.832031-7.886719-6.6875-10.699219-64.136719-16.113281-129.617188-16.113281-194.640625v-14.671875h16v14.671875c0 61.886719 4.976562 124.199219 14.800781 185.328125h105.199219zm0 0"/><path d="m223.273438 176.28125-15.992188-.5625c.480469-13.605469.71875-27.414062.71875-41.039062v-14.679688h16v14.671875c0 13.816406-.246094 27.816406-.726562 41.609375zm0 0"/><path d="m232 128h-224c-4.414062 0-8-3.585938-8-8v-32c0-4.414062 3.585938-8 8-8h224c4.414062 0 8 3.585938 8 8v32c0 4.414062-3.585938 8-8 8zm-216-16h208v-16h-208zm0 0"/><path d="m168 160h-96c-4.414062 0-8-3.585938-8-8v-32h16v24h80v-24h16v32c0 4.414062-3.585938 8-8 8zm0 0"/><path d="m146.34375 221.65625-26.34375-26.34375-18.34375 18.34375-11.3125-11.3125 24-24c3.128906-3.128906 8.183594-3.128906 11.3125 0l32 32zm0 0"/><path d="m112 256h-56c-3.230469 0-6.152344-1.953125-7.390625-4.9375-1.242187-2.992188-.554687-6.429688 1.734375-8.71875l32-32 11.3125 11.3125-18.34375 18.34375h36.6875zm0 0"/></svg>