<svg id="icons" enable-background="new 0 0 64 64" height="512" viewBox="0 0 64 64" width="512" xmlns="http://www.w3.org/2000/svg"><path d="m63 9.99v3h-11.02-8-8-8-8-8-10.98v-3h1 60z" fill="#48cfad"/><path d="m62 9.99h-2.003v3h3.003v-3z" fill="#37bc9b"/><path d="m62 9.99h-60c0-2.21 1.79-4 4-4h52c2.21 0 4 1.79 4 4z" fill="#37bc9b"/><path d="m58 5.99h-3.003c2.21 0 4 1.79 4 4h3.003c0-2.21-1.79-4-4-4z" fill="#39aa89"/><path d="m10 54.01h8c0 2.21-1.79 4-4 4s-4-1.79-4-4z" fill="#656d78"/><path d="m46 54.01h8c0 2.21-1.79 4-4 4s-4-1.79-4-4z" fill="#656d78"/><path d="m55 51.01v3h-1-8-1v-3z" fill="#ccd1d9"/><path d="m19 51.01v3h-1-8-1v-3z" fill="#ccd1d9"/><path d="m35.98 12.99h8 8 11.02v4c-1.11 0-2 .89-2 2v28.02c0 2.21-1.79 4-4 4h-2-10-26-10-2c-2.21 0-4-1.79-4-4v-28.02c0-1.11-.89-2-2-2v-4h10.98 8 8z" fill="#37bc9b"/><path d="m59.997 12.99v2.999c-1.11 0-2 .89-2 2v29.021c0 2.21-1.79 4-4 4h1.003 2c2.21 0 4-1.79 4-4v-28.02c0-1.11.89-2 2-2v-4z" fill="#39aa89"/><path d="" fill="#37bc9b" stroke="#000" stroke-miterlimit="10" stroke-width="4"/><path d="m63 13.988h-62c-.553 0-1-.448-1-1v-3c0-.552.447-1 1-1h62c.553 0 1 .448 1 1v3c0 .552-.447 1-1 1zm-61-2h60v-1h-60z"/><path d="m3 19.988c-.553 0-1-.448-1-1 0-.551-.448-1-1-1-.553 0-1-.448-1-1s.447-1 1-1c1.654 0 3 1.346 3 3 0 .552-.447 1-1 1z"/><path d="m1 17.988c-.553 0-1-.448-1-1v-4c0-.552.447-1 1-1s1 .448 1 1v4c0 .552-.447 1-1 1z"/><path d="m61 19.988c-.553 0-1-.448-1-1 0-1.654 1.346-3 3-3 .553 0 1 .448 1 1s-.447 1-1 1c-.552 0-1 .449-1 1 0 .552-.447 1-1 1z"/><path d="m63 17.988c-.553 0-1-.448-1-1v-4c0-.552.447-1 1-1s1 .448 1 1v4c0 .552-.447 1-1 1z"/><path d="m7 52.012c-2.757 0-5-2.244-5-5.002 0-.553.447-1 1-1s1 .447 1 1c0 1.655 1.346 3.002 3 3.002.553 0 1 .447 1 1s-.447 1-1 1z"/><path d="m57.002 52.012c-.553 0-1-.447-1-1s.447-1 1-1c1.654 0 3-1.347 3-3.002 0-.553.447-1 1-1s1 .447 1 1c0 2.758-2.243 5.002-5 5.002z"/><path d="m3 48.01c-.553 0-1-.447-1-1v-28.022c0-.552.447-1 1-1s1 .448 1 1v28.022c0 .553-.447 1-1 1z"/><path d="m61 48.01c-.553 0-1-.447-1-1v-28.022c0-.552.447-1 1-1s1 .448 1 1v28.022c0 .553-.447 1-1 1z"/><path d="m57.002 52.012h-50.002c-.553 0-1-.447-1-1s.447-1 1-1h50.002c.553 0 1 .447 1 1s-.447 1-1 1z"/><path d="m2 10.988c-.553 0-1-.448-1-1 0-2.757 2.243-5 5-5 .553 0 1 .448 1 1s-.447 1-1 1c-1.654 0-3 1.346-3 3 0 .552-.447 1-1 1z"/><path d="m61.999 10.988c-.553 0-1-.448-1-1 0-1.654-1.346-3-3-3-.553 0-1-.448-1-1s.447-1 1-1c2.757 0 5 2.243 5 5 0 .552-.447 1-1 1z"/><path d="m57.999 6.988h-51.999c-.553 0-1-.448-1-1s.447-1 1-1h51.999c.553 0 1 .448 1 1s-.447 1-1 1z"/><path d="m11.984 16.988c-.553 0-1-.448-1-1v-3c0-.552.447-1 1-1s1 .448 1 1v3c0 .552-.447 1-1 1z"/><path d="m19.984 16.988c-.553 0-1-.448-1-1v-3c0-.552.447-1 1-1s1 .448 1 1v3c0 .552-.447 1-1 1z"/><path d="m27.984 16.988c-.553 0-1-.448-1-1v-3c0-.552.447-1 1-1s1 .448 1 1v3c0 .552-.447 1-1 1z"/><path d="m35.984 16.988c-.553 0-1-.448-1-1v-3c0-.552.447-1 1-1s1 .448 1 1v3c0 .552-.447 1-1 1z"/><path d="m43.984 16.988c-.553 0-1-.448-1-1v-3c0-.552.447-1 1-1s1 .448 1 1v3c0 .552-.447 1-1 1z"/><path d="m51.984 16.988c-.553 0-1-.448-1-1v-3c0-.552.447-1 1-1s1 .448 1 1v3c0 .552-.447 1-1 1z"/><path d="m14.003 59.012c-2.757 0-5-2.243-5-5 0-.553.447-1 1-1s1 .447 1 1c0 1.654 1.346 3 3 3s3-1.346 3-3c0-.553.447-1 1-1s1 .447 1 1c0 2.757-2.243 5-5 5z"/><path d="m19.002 55.012h-9.999c-.553 0-1-.447-1-1v-3.023c0-.553.447-1 1-1s1 .447 1 1v2.023h7.999v-2.023c0-.553.447-1 1-1s1 .447 1 1v3.023c0 .552-.447 1-1 1z"/><path d="m49.998 59.012c-2.757 0-5-2.243-5-5 0-.553.447-1 1-1s1 .447 1 1c0 1.654 1.346 3 3 3s3-1.346 3-3c0-.553.447-1 1-1s1 .447 1 1c0 2.757-2.243 5-5 5z"/><path d="m54.998 55.012h-10c-.553 0-1-.447-1-1v-3.023c0-.553.447-1 1-1s1 .447 1 1v2.023h8v-2.023c0-.553.447-1 1-1s1 .447 1 1v3.023c0 .552-.447 1-1 1z"/><path d="m24.984 34.986c-.553 0-1-.447-1-1 0-2.137.832-4.146 2.344-5.655 3.119-3.119 8.195-3.12 11.314 0 .391.391.391 1.023 0 1.414s-1.023.391-1.414 0c-2.34-2.34-6.146-2.34-8.486 0-1.134 1.132-1.758 2.638-1.758 4.241 0 .553-.447 1-1 1z"/><path d="m31.986 41.983c-2.049 0-4.098-.779-5.658-2.339-.391-.39-.391-1.023 0-1.414s1.023-.391 1.414 0c2.339 2.337 6.146 2.338 8.486 0 1.132-1.133 1.756-2.641 1.756-4.246 0-.553.447-1 1-1s1 .447 1 1c0 2.14-.832 4.15-2.342 5.66-1.559 1.56-3.607 2.339-5.656 2.339z"/><path d="m36.934 30.039h-2.84c-.553 0-1-.448-1-1s.447-1 1-1h2.84c.553 0 1 .448 1 1s-.448 1-1 1z"/><path d="m36.935 30.039c-.368 0-.722-.203-.896-.555l-1.414-2.842c-.246-.494-.044-1.095.45-1.341.493-.246 1.095-.044 1.341.45l1.414 2.842c.246.494.044 1.095-.45 1.341-.144.071-.296.105-.445.105z"/><path d="m29.871 39.941h-2.84c-.553 0-1-.447-1-1s.447-1 1-1h2.84c.553 0 1 .447 1 1s-.447 1-1 1z"/><path d="m28.448 42.781c-.367 0-.721-.203-.896-.554l-1.416-2.84c-.247-.494-.046-1.095.448-1.341.497-.25 1.096-.044 1.341.448l1.416 2.84c.247.494.046 1.095-.448 1.341-.143.073-.295.106-.445.106z"/></svg>