<svg height="480pt" viewBox="0 -108 480.1183 480" width="480pt" xmlns="http://www.w3.org/2000/svg"><path d="m471.921875 111.898438-61.28125-62.640626c-5.957031-5.5625-13.699219-8.824218-21.839844-9.199218h-60.800781v128c0 4.417968-3.582031 8-8 8h-240v32h19.28125c6.386719-14.582032 20.796875-24.003906 36.71875-24.003906s30.332031 9.421874 36.71875 24.003906h22.5625c6.386719-14.582032 20.796875-24.003906 36.71875-24.003906s30.332031 9.421874 36.71875 24.003906h94.5625c6.386719-14.582032 20.796875-24.003906 36.71875-24.003906s30.332031 9.421874 36.71875 24.003906h42.402344c.59375-2.625.890625-5.308594.878906-8v-68.160156c-.011719-7.460938-2.90625-14.625-8.078125-20zm-87.921875.160156v-56h4.800781c3.835938.359375 7.46875 1.894531 10.398438 4.402344l50.480469 51.597656zm0 0" fill="#006837"/><path d="m449.679688 112.058594h-65.679688v-56h4.800781c3.835938.359375 7.46875 1.894531 10.398438 4.402344zm0 0" fill="#9fe0f6"/><path d="m172.71875 208.058594c-6.386719-14.582032-20.796875-24.003906-36.71875-24.003906s-30.332031 9.421874-36.71875 24.003906c-2.160156 5.058594-3.277344 10.5-3.28125 16 0 22.09375 17.910156 40 40 40s40-17.90625 40-40c-.003906-5.5-1.121094-10.941406-3.28125-16zm-36.71875 40c-13.253906 0-24-10.746094-24-24s10.746094-24 24-24 24 10.746094 24 24c-.039062 13.238281-10.761719 23.960937-24 24zm0 0"/><path d="m160 224.058594c0 13.253906-10.746094 24-24 24s-24-10.746094-24-24 10.746094-24 24-24 24 10.746094 24 24zm0 0" fill="#ccc"/><path d="m436.71875 208.058594c-6.386719-14.582032-20.796875-24.003906-36.71875-24.003906s-30.332031 9.421874-36.71875 24.003906c-2.160156 5.058594-3.277344 10.5-3.28125 16-.019531 20.550781 15.535156 37.773437 35.980469 39.839844 20.445312 2.0625 39.128906-11.699219 43.21875-31.839844.550781-2.628906.820312-5.3125.800781-8-.003906-5.5-1.121094-10.941406-3.28125-16zm-36.71875 40c-13.253906 0-24-10.746094-24-24s10.746094-24 24-24 24 10.746094 24 24c-.039062 13.238281-10.761719 23.960937-24 24zm0 0"/><path d="m424 224.058594c0 13.253906-10.746094 24-24 24s-24-10.746094-24-24 10.746094-24 24-24 24 10.746094 24 24zm0 0" fill="#ccc"/><path d="m268.71875 208.058594c-6.386719-14.582032-20.796875-24.003906-36.71875-24.003906s-30.332031 9.421874-36.71875 24.003906c-2.160156 5.058594-3.277344 10.5-3.28125 16 0 22.09375 17.910156 40 40 40s40-17.90625 40-40c-.003906-5.5-1.121094-10.941406-3.28125-16zm-36.71875 40c-13.253906 0-24-10.746094-24-24s10.746094-24 24-24 24 10.746094 24 24c-.039062 13.238281-10.761719 23.960937-24 24zm0 0"/><path d="m256 224.058594c0 13.253906-10.746094 24-24 24s-24-10.746094-24-24 10.746094-24 24-24 24 10.746094 24 24zm0 0" fill="#ccc"/><path d="m392 16.058594c0 4.417968-3.582031 8-8 8h-56v144c0 4.417968-3.582031 8-8 8h-258.238281l-14.160157 42.5625c-1.128906 3.234375-4.171874 5.414062-7.601562 5.4375h-32c-4.417969 0-8-3.582032-8-8v-128c-.00390625-1.570313.46875-3.105469 1.359375-4.398438l48-72c1.472656-2.234375 3.964844-3.585937 6.640625-3.601562h32v128c0 4.417968 3.582031 8 8 8s8-3.582032 8-8v-128h40v128c0 4.417968 3.582031 8 8 8s8-3.582032 8-8v-128h40v128c0 4.417968 3.582031 8 8 8s8-3.582032 8-8v-128h40v128c0 4.417968 3.582031 8 8 8s8-3.582032 8-8v-128h112c4.417969 0 8 3.582031 8 8zm0 0" fill="#068445"/><path d="m471.894531 111.914062-61.246093-62.640624c-5.941407-5.589844-13.695313-8.863282-21.847657-9.214844h-60.800781v-16h56c4.417969 0 8-3.582032 8-8 0-4.417969-3.582031-8-8-8h-112c0-4.417969-3.582031-8.0000002-8-8.0000002s-8 3.5820312-8 8.0000002h-40c0-4.417969-3.582031-8.0000002-8-8.0000002s-8 3.5820312-8 8.0000002h-40c0-4.417969-3.582031-8.0000002-8-8.0000002s-8 3.5820312-8 8.0000002h-40c0-4.417969-3.582031-8.0000002-8-8.0000002s-8 3.5820312-8 8.0000002h-32c-2.675781 0-5.171875 1.335937-6.65625 3.5625l-48 72c-.875 1.3125-1.33984375 2.859375-1.34375 4.4375v128c0 4.417968 3.582031 8 8 8h32c3.441406-.003906 6.496094-2.207032 7.585938-5.472656l14.183593-42.527344h2.230469v40c0 4.417968 3.582031 8 8 8h24c0 22.09375 17.910156 40 40 40s40-17.90625 40-40h16c0 22.09375 17.910156 40 40 40s40-17.90625 40-40h88c0 22.09375 17.910156 40 40 40s40-17.90625 40-40h16c6.550781.683594 13.0625-1.621094 17.71875-6.28125 4.65625-4.65625 6.964844-11.167969 6.28125-17.71875v-68.152344c.007812-7.464844-2.902344-14.636719-8.105469-19.992188zm-83.09375-55.855468c3.839844.347656 7.476563 1.886718 10.398438 4.402344l50.464843 51.597656h-65.664062v-56zm-332.800781 104c-3.441406.003906-6.496094 2.207031-7.582031 5.472656l-14.1875 42.527344h-18.230469v-117.597656l44.28125-66.402344h27.71875v112c0 4.417968 3.582031 8 8 8s8-3.582032 8-8v-112h40v112c0 4.417968 3.582031 8 8 8s8-3.582032 8-8v-112h40v112c0 4.417968 3.582031 8 8 8s8-3.582032 8-8v-112h40v112c0 4.417968 3.582031 8 8 8s8-3.582032 8-8v-112h40v136zm80 88c-13.253906 0-24-10.746094-24-24s10.746094-24 24-24 24 10.746094 24 24-10.746094 24-24 24zm96 0c-13.253906 0-24-10.746094-24-24s10.746094-24 24-24 24 10.746094 24 24-10.746094 24-24 24zm36.609375-40c-6.339844-14.574219-20.71875-24-36.609375-24s-30.269531 9.425781-36.609375 24h-22.78125c-6.339844-14.574219-20.71875-24-36.609375-24s-30.269531 9.425781-36.609375 24h-19.390625v-32h232v32zm131.390625 40c-13.253906 0-24-10.746094-24-24s10.746094-24 24-24 24 10.746094 24 24-10.746094 24-24 24zm64-48c0 6.351562-1.648438 8-8 8h-19.390625c-6.339844-14.574219-20.71875-24-36.609375-24s-30.269531 9.425781-36.609375 24h-35.390625v-152h40v64c0 4.417968 3.582031 8 8 8h87.335938c.417968 1.242187.644531 2.539062.664062 3.847656zm0 0"/></svg>